<svg width="683" height="447" viewBox="0 0 683 447" fill="none" xmlns="http://www.w3.org/2000/svg">
<g clip-path="url(#clip0_9_628)">
<path d="M35.0305 413.649C37.7977 414.642 40.7772 414.89 43.6705 414.369C46.5639 413.848 49.2696 412.575 51.5166 410.679C57.2909 405.724 59.1014 397.56 60.5744 390.001C62.0268 382.547 63.4792 375.094 64.9315 367.641L55.8095 374.063C49.2495 378.682 42.5417 383.448 37.9997 390.138C33.4576 396.827 31.4749 405.959 35.1244 413.198" fill="#E6E6E6"/>
<path d="M35.8102 440.719C34.887 433.843 33.9376 426.879 34.5852 419.929C35.1604 413.757 37.0021 407.728 40.7515 402.785C42.7325 400.175 45.1543 397.931 47.9077 396.155C48.6233 395.693 49.282 396.852 48.5695 397.312C43.7963 400.411 40.125 404.94 38.0807 410.252C35.7972 416.191 35.4305 422.664 35.824 428.973C36.062 432.788 36.5663 436.578 37.0746 440.363C37.1155 440.533 37.0911 440.712 37.0063 440.864C36.9215 441.017 36.7824 441.132 36.6167 441.187C36.533 441.21 36.4457 441.216 36.3598 441.204C36.2739 441.193 36.1911 441.164 36.1162 441.121C36.0413 441.077 35.9757 441.02 35.9232 440.951C35.8707 440.882 35.8323 440.803 35.8102 440.719L35.8102 440.719Z" fill="#F2F2F2"/>
<path d="M44.7029 428.552C45.8685 430.384 47.4914 431.88 49.4117 432.894C51.332 433.907 53.4832 434.402 55.6531 434.33C61.1963 434.061 65.8176 430.106 69.9776 426.35L82.282 415.242L74.1385 414.844C68.2822 414.557 62.2748 414.29 56.6968 416.136C51.1189 417.983 45.9746 422.427 44.9547 428.33" fill="#E6E6E6"/>
<path d="M33.201 444.672C37.6448 436.633 42.7993 427.697 52.0094 424.841C54.5669 424.05 57.2542 423.767 59.9205 424.006C60.7604 424.08 60.5507 425.404 59.7123 425.33C55.2339 424.954 50.7657 426.163 47.0874 428.745C43.5276 431.223 40.756 434.667 38.4101 438.32C36.9732 440.557 35.6861 442.889 34.3987 445.218C33.9873 445.962 32.7848 445.425 33.201 444.672L33.201 444.672Z" fill="#F2F2F2"/>
<path d="M269.282 204.373C270.313 206.507 270.47 208.96 269.719 211.208C268.968 213.456 267.368 215.321 265.261 216.405C264.829 216.618 264.38 216.795 263.919 216.934L262.415 248.658L249.385 238.915L252.811 210.283C252.376 208.328 252.601 206.283 253.452 204.47C254.303 202.656 255.732 201.176 257.514 200.262C258.554 199.745 259.687 199.441 260.846 199.368C262.005 199.295 263.167 199.455 264.264 199.838C265.361 200.221 266.369 200.819 267.231 201.598C268.093 202.377 268.79 203.321 269.282 204.373Z" fill="#9E616A"/>
<path d="M288.325 432.95L296.748 431.249L294.338 397.219L281.906 399.73L288.325 432.95Z" fill="#9E616A"/>
<path d="M285.633 430.572L302.222 427.221L302.223 427.221C303.612 426.937 305.045 426.938 306.435 427.222C307.825 427.507 309.142 428.07 310.309 428.877C312.702 430.518 314.347 433.042 314.882 435.895L314.95 436.246L287.79 441.733L285.633 430.572Z" fill="#2F2E41"/>
<path d="M258.794 437.936H267.381L271.465 404.074H258.792L258.794 437.936Z" fill="#9E616A"/>
<path d="M256.604 435.07L273.513 435.069H273.514C274.935 435.068 276.343 435.353 277.652 435.907C278.961 436.462 280.145 437.274 281.133 438.296C283.169 440.377 284.303 443.176 284.29 446.087V446.445L256.604 446.446L256.604 435.07Z" fill="#2F2E41"/>
<path d="M142.347 365.276C132.817 365.272 125.094 357.368 125.099 347.623C125.099 345.274 125.56 342.947 126.455 340.775L128.997 341.875C127.493 345.48 127.46 349.53 128.904 353.159C130.349 356.788 133.157 359.707 136.727 361.291C138.46 362.04 140.325 362.435 142.213 362.454C144.101 362.473 145.974 362.115 147.722 361.402L148.746 364.023C146.715 364.854 144.541 365.279 142.347 365.276Z" fill="#3F3D56"/>
<path d="M168.91 364.924H147.522V359.28L164.77 354.342L168.91 364.924Z" fill="#3F3D56"/>
<path d="M161.321 359.28H217.896C217.93 362.426 216.714 365.457 214.514 367.706C212.315 369.954 209.312 371.238 206.167 371.273H173.05C169.904 371.238 166.902 369.954 164.702 367.706C162.503 365.457 161.286 362.426 161.321 359.28Z" fill="#3F3D56"/>
<path d="M223.23 366.415H160.446C158.233 366.366 156.128 365.453 154.58 363.871C153.033 362.289 152.166 360.163 152.166 357.95C152.166 355.737 153.033 353.611 154.58 352.029C156.128 350.447 158.233 349.533 160.446 349.485H223.23C225.443 349.533 227.548 350.447 229.095 352.029C230.643 353.611 231.509 355.737 231.509 357.95C231.509 360.163 230.643 362.289 229.095 363.871C227.548 365.453 225.443 366.366 223.23 366.415Z" fill="#CACACA"/>
<path d="M263.773 235.473L263.653 241.174L263.121 266.782C263.105 268.477 262.756 270.151 262.092 271.71C261.429 273.27 260.465 274.683 259.256 275.869C258.046 277.055 256.614 277.992 255.043 278.624C253.471 279.257 251.79 279.573 250.096 279.556C246.977 279.485 243.995 278.259 241.726 276.117L206.039 241.788C204.626 240.46 203.517 238.842 202.786 237.045C202.056 235.248 201.723 233.314 201.808 231.376C201.894 229.438 202.397 227.542 203.283 225.816C204.169 224.091 205.417 222.577 206.942 221.378C209.51 219.366 212.748 218.409 215.996 218.7C219.245 218.991 222.261 220.509 224.43 222.945L247.999 250.06L250.263 233.021L263.773 235.473Z" fill="#E6E6E6"/>
<path d="M272.538 424.001L255.666 425.57L246.463 357.352C216.129 362.57 187.51 364.241 162.757 357.929C158.693 356.856 155.215 354.226 153.074 350.609C150.933 346.991 150.301 342.677 151.314 338.597C151.411 338.196 151.522 337.8 151.649 337.408C154.611 328.368 159.83 318.68 165.94 308.737L206.585 323.635L208.119 329.908L251.472 324.297C253.567 324.046 255.69 324.213 257.72 324.787C259.75 325.361 261.646 326.332 263.299 327.642C264.952 328.953 266.33 330.577 267.352 332.423C268.375 334.268 269.022 336.298 269.256 338.394C269.315 338.865 269.353 339.338 269.371 339.812L272.538 424.001Z" fill="#2F2E41"/>
<path d="M298.188 409.636L281.316 411.204L250.725 348.63C220.39 353.848 191.772 355.519 167.019 349.207C162.955 348.134 159.477 345.504 157.336 341.887C155.194 338.269 154.562 333.955 155.576 329.875C155.673 329.474 155.784 329.078 155.91 328.686C158.873 319.646 164.092 309.958 170.202 300.015L217.366 303.984L212.381 321.186L255.734 315.575C257.829 315.324 259.952 315.491 261.982 316.065C264.012 316.639 265.908 317.609 267.561 318.92C269.214 320.23 270.592 321.855 271.614 323.701C272.637 325.546 273.284 327.575 273.518 329.672C273.577 330.143 273.615 330.616 273.633 331.09L298.188 409.636Z" fill="#2F2E41"/>
<path d="M218.693 208.868C230.128 208.868 239.399 199.389 239.399 187.696C239.399 176.004 230.128 166.525 218.693 166.525C207.257 166.525 197.987 176.004 197.987 187.696C197.987 199.389 207.257 208.868 218.693 208.868Z" fill="#9E616A"/>
<path d="M242.337 222.533C242.131 222.91 242.08 223.353 242.193 223.768C242.307 224.182 242.577 224.537 242.947 224.757C243.501 224.825 256.512 233.219 256.883 232.258C257.089 232.197 257.28 232.096 257.446 231.96C257.612 231.825 257.749 231.657 257.849 231.468L278.789 192.264C278.904 192.049 278.97 191.811 278.983 191.568C278.996 191.324 278.956 191.081 278.864 190.855C279.443 189.845 264.43 185.971 263.917 185.668C263.567 185.561 263.19 185.579 262.851 185.72C262.513 185.86 262.234 186.114 262.062 186.438L242.337 222.533Z" fill="#3F3D56"/>
<path d="M275.782 191.437C275.782 191.437 263.216 187.899 263.427 187.748C263.087 187.735 262.4 187.243 262.182 187.749L243.531 222.132C242.729 222.881 255.912 229.003 256.024 229.367C257.065 230.023 275.478 192.274 276.046 192.08C276.101 191.976 276.113 191.854 276.08 191.741C276.047 191.627 275.971 191.531 275.869 191.473C275.841 191.458 275.812 191.446 275.782 191.437Z" fill="#2A438C"/>
<path d="M230.281 220.548C230.467 220.076 230.589 219.581 230.645 219.076C230.817 217.603 230.401 216.123 229.486 214.956C228.571 213.79 227.232 213.033 225.761 212.85L216.135 211.769C215.407 211.694 214.671 211.765 213.97 211.976C213.269 212.187 212.617 212.534 212.051 212.998C211.485 213.463 211.017 214.034 210.672 214.68C210.328 215.326 210.115 216.034 210.045 216.762C209.904 218.055 210.207 219.356 210.904 220.453C205.969 220.995 201.301 222.971 197.475 226.137C193.65 229.303 190.835 233.519 189.378 238.266C179.867 255.946 173.021 276.395 169.8 300.616L212.536 320.914L228.813 286.094L232.088 280.953C232.726 280.275 233.336 279.597 233.914 278.908C237.285 275.094 239.99 270.739 241.914 266.026C243.255 262.648 244.043 259.076 244.248 255.447C244.9 243.839 239.457 232.205 230.281 220.548Z" fill="#E4E4E4"/>
<path opacity="0.2" d="M241.914 266.026C239.99 270.739 237.285 275.094 233.914 278.908C233.336 279.597 232.727 280.275 232.088 280.953L228.813 286.094C216.739 277.042 206.956 241.401 206.956 241.401L220.579 238.75L241.914 266.026Z" fill="black"/>
<path d="M250.161 210.845C248.968 212.895 248.622 215.329 249.196 217.63C249.77 219.931 251.219 221.917 253.235 223.166C253.649 223.413 254.082 223.626 254.531 223.802L253.567 255.548L267.312 246.894L266.121 218.074C266.706 216.156 266.639 214.098 265.932 212.222C265.225 210.346 263.916 208.757 262.211 207.703C261.218 207.102 260.114 206.706 258.965 206.539C257.817 206.372 256.646 206.436 255.523 206.729C254.399 207.022 253.346 207.538 252.425 208.245C251.505 208.952 250.735 209.836 250.161 210.845Z" fill="#9E616A"/>
<path d="M252.359 243.565L267.474 245.714L266.825 277.022C266.787 279.256 266.179 281.442 265.058 283.375C263.937 285.307 262.341 286.92 260.422 288.062C258.076 289.442 255.346 290.022 252.642 289.715C249.938 289.408 247.408 288.23 245.431 286.359L209.745 252.028C207.234 249.645 205.731 246.391 205.546 242.935C205.36 239.478 206.506 236.082 208.748 233.445C209.857 232.131 211.218 231.054 212.752 230.278C214.285 229.501 215.959 229.04 217.674 228.923C219.388 228.805 221.109 229.033 222.734 229.594C224.359 230.154 225.855 231.036 227.133 232.185C227.485 232.501 227.821 232.835 228.137 233.186L251.702 260.299L252.359 243.565Z" fill="#E6E6E6"/>
<path d="M128.708 348.779C125.194 348.736 121.841 347.301 119.383 344.788C116.926 342.275 115.565 338.891 115.6 335.376V259.894C115.561 258.148 115.872 256.412 116.513 254.787C117.155 253.163 118.114 251.683 119.335 250.434C120.556 249.186 122.014 248.194 123.624 247.517C125.234 246.839 126.962 246.491 128.708 246.491C130.455 246.491 132.183 246.839 133.793 247.517C135.402 248.194 136.861 249.186 138.082 250.434C139.303 251.683 140.262 253.163 140.904 254.787C141.545 256.412 141.856 258.148 141.817 259.894V335.376C141.852 338.891 140.491 342.275 138.033 344.788C135.576 347.301 132.222 348.736 128.708 348.779Z" fill="#CACACA"/>
<path d="M210.996 437.275H195.128V368.179H189.608V437.275H173.74C171.335 437.302 169.039 438.283 167.357 440.003C165.675 441.723 164.744 444.04 164.771 446.446V446.446H219.966V446.446C219.992 444.04 219.062 441.723 217.38 440.003C215.698 438.283 213.402 437.302 210.996 437.275Z" fill="#3F3D56"/>
<path d="M236.7 163.705C232.276 161.102 226.891 161.096 221.786 161.161C218.088 161.208 214.39 161.255 210.692 161.302C206.203 161.36 201.465 161.487 197.641 163.892C193.817 166.296 191.5 171.837 194.025 175.633C186.516 168.962 175.271 167.908 165.859 171.199C161.253 172.809 156.894 175.423 153.765 179.237C150.367 183.379 148.598 188.713 147.887 194.07C147.176 199.428 147.454 204.865 147.732 210.264C147.908 213.659 148.293 217.488 150.905 219.59C153.316 221.53 156.848 221.237 159.647 219.955C164.529 217.719 167.904 213.034 170.426 208.211C172.949 203.389 174.873 198.203 178.014 193.777C181.155 189.35 185.893 185.647 191.242 185.584C187.605 190.86 186.941 198.529 190.742 203.682C193.476 207.389 198.037 209.313 202.552 209.801C207.067 210.29 211.61 209.514 216.087 208.739C219.118 208.215 222.682 207.252 223.685 204.281C224.669 201.368 222.56 198.426 221.657 195.485C219.916 189.81 223.489 183.026 229.082 181.39L228.626 180.94C233.258 181.601 238.805 180.988 241.27 176.926C243.962 172.491 241.124 166.309 236.7 163.705Z" fill="#2F2E41"/>
<path d="M682.422 21.2879H283.943C283.788 21.2848 283.641 21.2212 283.533 21.1106C283.424 21.0001 283.363 20.8514 283.363 20.6966C283.363 20.5418 283.424 20.3931 283.533 20.2826C283.641 20.172 283.788 20.1084 283.943 20.1053H682.422C682.576 20.1084 682.724 20.172 682.832 20.2826C682.941 20.3931 683.001 20.5418 683.001 20.6966C683.001 20.8514 682.941 21.0001 682.832 21.1106C682.724 21.2212 682.576 21.2848 682.422 21.2879Z" fill="#CACACA"/>
<path d="M296.961 13.0094C300.474 13.0094 303.323 10.0971 303.323 6.50468C303.323 2.91224 300.474 0 296.961 0C293.447 0 290.599 2.91224 290.599 6.50468C290.599 10.0971 293.447 13.0094 296.961 13.0094Z" fill="#3F3D56"/>
<path d="M318.938 13.0094C322.451 13.0094 325.3 10.0971 325.3 6.50468C325.3 2.91224 322.451 0 318.938 0C315.424 0 312.576 2.91224 312.576 6.50468C312.576 10.0971 315.424 13.0094 318.938 13.0094Z" fill="#3F3D56"/>
<path d="M340.915 13.0094C344.429 13.0094 347.277 10.0971 347.277 6.50468C347.277 2.91224 344.429 0 340.915 0C337.401 0 334.553 2.91224 334.553 6.50468C334.553 10.0971 337.401 13.0094 340.915 13.0094Z" fill="#3F3D56"/>
<path d="M669.254 3.97843H653.639C653.33 3.97161 653.036 3.84402 652.819 3.623C652.603 3.40198 652.482 3.10509 652.482 2.79591C652.482 2.48673 652.603 2.18985 652.819 1.96883C653.036 1.74781 653.33 1.62023 653.639 1.6134H669.254C669.563 1.62023 669.857 1.74781 670.073 1.96883C670.29 2.18985 670.411 2.48673 670.411 2.79591C670.411 3.10509 670.29 3.40198 670.073 3.623C669.857 3.84402 669.563 3.97161 669.254 3.97843Z" fill="#3F3D56"/>
<path d="M669.254 8.41337H653.639C653.33 8.40655 653.036 8.27896 652.819 8.05794C652.603 7.83692 652.482 7.54004 652.482 7.23086C652.482 6.92168 652.603 6.62479 652.819 6.40377C653.036 6.18275 653.33 6.05516 653.639 6.04834H669.254C669.563 6.05516 669.857 6.18275 670.073 6.40377C670.29 6.62479 670.411 6.92168 670.411 7.23086C670.411 7.54004 670.29 7.83692 670.073 8.05794C669.857 8.27896 669.563 8.40655 669.254 8.41337Z" fill="#3F3D56"/>
<path d="M669.254 12.8484H653.639C653.33 12.8416 653.036 12.714 652.819 12.493C652.603 12.272 652.482 11.9751 652.482 11.6659C652.482 11.3567 652.603 11.0598 652.819 10.8388C653.036 10.6178 653.33 10.4902 653.639 10.4834H669.254C669.563 10.4902 669.857 10.6178 670.073 10.8388C670.29 11.0598 670.411 11.3567 670.411 11.6659C670.411 11.9751 670.29 12.272 670.073 12.493C669.857 12.714 669.563 12.8416 669.254 12.8484Z" fill="#3F3D56"/>
<path d="M604.337 207.973H346.671C345.392 207.957 344.171 207.435 343.277 206.52C342.382 205.606 341.887 204.374 341.899 203.094V87.477C341.887 86.1976 342.382 84.9656 343.277 84.051C344.171 83.1364 345.392 82.6139 346.671 82.5981H604.337C605.616 82.6139 606.836 83.1364 607.731 84.051C608.625 84.9656 609.121 86.1976 609.108 87.477V203.094C609.121 204.374 608.625 205.606 607.731 206.52C606.836 207.435 605.616 207.957 604.337 207.973Z" fill="#2A438C"/>
<path d="M399.145 122.897C398.279 122.916 397.455 123.274 396.85 123.893C396.244 124.512 395.905 125.344 395.905 126.21C395.905 127.076 396.244 127.907 396.85 128.526C397.455 129.145 398.279 129.503 399.145 129.522H551.863C552.728 129.501 553.55 129.143 554.154 128.524C554.758 127.905 555.097 127.075 555.097 126.21C555.097 125.345 554.758 124.514 554.154 123.895C553.55 123.276 552.728 122.918 551.863 122.897L399.145 122.897Z" fill="white"/>
<path d="M399.145 142.09C398.28 142.11 397.458 142.468 396.854 143.087C396.249 143.706 395.911 144.537 395.911 145.402C395.911 146.267 396.249 147.098 396.854 147.717C397.458 148.336 398.28 148.694 399.145 148.714H551.863C552.728 148.694 553.55 148.336 554.154 147.717C554.759 147.098 555.097 146.267 555.097 145.402C555.097 144.537 554.759 143.706 554.154 143.087C553.55 142.468 552.728 142.11 551.863 142.09H399.145Z" fill="white"/>
<path d="M399.145 161.049C398.279 161.068 397.455 161.426 396.85 162.045C396.244 162.664 395.905 163.496 395.905 164.362C395.905 165.228 396.244 166.059 396.85 166.678C397.455 167.297 398.279 167.655 399.145 167.674H464.86C465.725 167.655 466.549 167.297 467.155 166.678C467.76 166.059 468.099 165.228 468.099 164.362C468.099 163.496 467.76 162.664 467.155 162.045C466.549 161.426 465.725 161.068 464.86 161.049H399.145Z" fill="white"/>
<path d="M604.811 220.432C615.546 220.432 624.248 211.534 624.248 200.558C624.248 189.582 615.546 180.685 604.811 180.685C594.076 180.685 585.374 189.582 585.374 200.558C585.374 211.534 594.076 220.432 604.811 220.432Z" fill="#3F3D56"/>
<path d="M603.191 209.346L597.022 201.236L600.609 198.382L603.53 202.222L613.398 191.572L616.698 194.768L603.191 209.346Z" fill="white"/>
<path d="M447.415 447H0.821477C0.601813 446.995 0.392711 446.905 0.239001 446.748C0.0852899 446.591 -0.000793457 446.38 -0.000793457 446.16C-0.000793457 445.94 0.0852899 445.729 0.239001 445.572C0.392711 445.415 0.601813 445.325 0.821477 445.32H447.415C447.635 445.325 447.844 445.415 447.998 445.572C448.151 445.729 448.237 445.94 448.237 446.16C448.237 446.38 448.151 446.591 447.998 446.748C447.844 446.905 447.635 446.995 447.415 447Z" fill="#CACACA"/>
</g>
<defs>
<clipPath id="clip0_9_628">
<rect width="683" height="447" fill="white"/>
</clipPath>
</defs>
</svg>
