<svg width="683" height="447" viewBox="0 0 683 447" fill="none" xmlns="http://www.w3.org/2000/svg">
<g clip-path="url(#clip0_4_108)">
<path d="M403.292 29.502H327.81V30.9413H403.292V29.502Z" fill="#CCCCCC"/>
<path d="M268.861 29.502H29.4738V30.9413H268.861V29.502Z" fill="#CCCCCC"/>
<path d="M29.4738 59.7232C45.7518 59.7232 58.9477 46.5147 58.9477 30.2212C58.9477 13.9277 45.7518 0.719254 29.4738 0.719254C13.1959 0.719254 0 13.9277 0 30.2212C0 46.5147 13.1959 59.7232 29.4738 59.7232Z" fill="#2A438C"/>
<path d="M163.904 59.7232C180.182 59.7232 193.378 46.5147 193.378 30.2212C193.378 13.9277 180.182 0.719254 163.904 0.719254C147.627 0.719254 134.431 13.9277 134.431 30.2212C134.431 46.5147 147.627 59.7232 163.904 59.7232Z" fill="#3F3D56"/>
<path d="M298.332 60.4441C292.36 60.4441 286.523 58.6716 281.558 55.3507C276.592 52.0299 272.722 47.3099 270.437 41.7875C268.152 36.2652 267.554 30.1885 268.719 24.326C269.884 18.4635 272.76 13.0785 276.982 8.85183C281.205 4.6252 286.585 1.74683 292.442 0.580708C298.299 -0.585415 304.369 0.0130733 309.886 2.30051C315.404 4.58794 320.119 8.46157 323.437 13.4316C326.754 18.4016 328.525 24.2447 328.525 30.222C328.525 38.2374 325.344 45.9245 319.682 51.5922C314.02 57.26 306.34 60.4441 298.332 60.4441ZM298.332 1.43933C292.645 1.43933 287.085 3.12741 282.356 6.29009C277.628 9.45278 273.942 13.948 271.766 19.2074C269.589 24.4667 269.02 30.254 270.129 35.8373C271.239 41.4206 273.977 46.5491 277.999 50.5745C282.02 54.5998 287.144 57.3411 292.722 58.4517C298.3 59.5623 304.082 58.9923 309.336 56.8138C314.591 54.6353 319.081 50.9461 322.241 46.2128C325.401 41.4796 327.087 35.9147 327.087 30.222C327.087 22.5884 324.058 15.2674 318.665 9.86959C313.272 4.47179 305.958 1.43933 298.332 1.43933Z" fill="#CCCCCC"/>
<path d="M432.763 60.4441C426.791 60.4441 420.954 58.6716 415.988 55.3507C411.023 52.0299 407.153 47.3099 404.868 41.7875C402.583 36.2652 401.985 30.1885 403.15 24.326C404.315 18.4635 407.19 13.0785 411.413 8.85183C415.636 4.6252 421.015 1.74683 426.872 0.580708C432.729 -0.585415 438.8 0.0130733 444.317 2.30051C449.834 4.58794 454.55 8.46157 457.868 13.4316C461.185 18.4016 462.956 24.2447 462.956 30.222C462.956 38.2374 459.775 45.9245 454.113 51.5922C448.45 57.26 440.771 60.4441 432.763 60.4441ZM432.763 1.43933C427.076 1.43933 421.516 3.12741 416.787 6.29009C412.058 9.45278 408.373 13.948 406.196 19.2074C404.02 24.4667 403.451 30.254 404.56 35.8373C405.67 41.4206 408.408 46.5491 412.43 50.5745C416.451 54.5998 421.575 57.3411 427.153 58.4517C432.731 59.5623 438.513 58.9923 443.767 56.8138C449.021 54.6353 453.512 50.9461 456.672 46.2128C459.832 41.4796 461.518 35.9147 461.518 30.222C461.518 26.4422 460.774 22.6995 459.329 19.2074C457.884 15.7153 455.766 12.5423 453.096 9.86959C450.426 7.19687 447.256 5.07675 443.767 3.63028C440.278 2.18381 436.539 1.43933 432.763 1.43933Z" fill="#CCCCCC"/>
<path d="M27.2049 39.0177C26.6871 39.0181 26.1832 38.85 25.7693 38.5387L25.7438 38.5196L20.3341 34.378C19.8281 33.9897 19.497 33.4161 19.4135 32.7834C19.3301 32.1508 19.5011 31.5108 19.889 31.0044C20.277 30.4979 20.85 30.1665 21.4821 30.0829C22.1141 29.9994 22.7535 30.1706 23.2594 30.5589L26.763 33.2484L35.0423 22.4362C35.43 21.93 36.0028 21.5987 36.6345 21.5152C37.2663 21.4317 37.9053 21.6027 38.4111 21.9908L38.36 22.0618L38.4127 21.9908C38.9179 22.3794 39.2485 22.9528 39.3318 23.5852C39.4151 24.2176 39.2443 24.8571 38.8569 25.3636L29.1181 38.0749C28.8926 38.368 28.6025 38.6051 28.2706 38.7678C27.9386 38.9304 27.5737 39.0143 27.204 39.0129L27.2049 39.0177Z" fill="white"/>
<path d="M523.648 156.435C524.199 156.687 524.729 156.983 525.232 157.319L575.6 135.802L577.397 122.521L597.523 122.398L596.334 152.859L529.853 170.459C529.713 170.922 529.545 171.375 529.35 171.816C528.389 173.869 526.843 175.592 524.907 176.768C522.971 177.945 520.73 178.522 518.467 178.428C516.204 178.334 514.019 177.573 512.187 176.241C510.355 174.908 508.957 173.063 508.168 170.937C507.38 168.812 507.237 166.501 507.757 164.294C508.276 162.087 509.436 160.084 511.09 158.534C512.743 156.985 514.818 155.96 517.052 155.587C519.286 155.213 521.58 155.509 523.647 156.437L523.648 156.435Z" fill="#FEB8B8"/>
<path d="M604.842 432.456H591.074L584.525 379.302H604.844L604.842 432.456Z" fill="#FEB8B8"/>
<path d="M581.24 428.519H607.792V445.247H564.522C564.522 440.809 566.284 436.552 569.419 433.414C572.554 430.276 576.807 428.513 581.24 428.513V428.519Z" fill="#2F2E41"/>
<path d="M658.386 428.562L644.685 429.912L632.962 377.656L653.183 375.668L658.386 428.562Z" fill="#FEB8B8"/>
<path d="M634.504 426.963L660.923 424.358L662.561 441.008L619.509 445.253C619.075 440.837 620.411 436.43 623.222 433C626.034 429.57 630.092 427.398 634.503 426.963H634.504Z" fill="#2F2E41"/>
<path d="M608.674 66.1423C623.907 66.1423 636.255 53.782 636.255 38.5347C636.255 23.2875 623.907 10.9271 608.674 10.9271C593.441 10.9271 581.093 23.2875 581.093 38.5347C581.093 53.782 593.441 66.1423 608.674 66.1423Z" fill="#FEB8B8"/>
<path d="M587.997 421.706C586.814 421.708 585.667 421.292 584.76 420.531C583.853 419.77 583.244 418.713 583.039 417.547C575.918 377.959 552.62 248.489 552.062 244.9C552.05 244.818 552.044 244.734 552.044 244.651V234.996C552.043 234.645 552.153 234.302 552.358 234.016L555.434 229.705C555.581 229.498 555.773 229.326 555.995 229.205C556.218 229.083 556.466 229.014 556.719 229.003C574.265 228.18 631.717 225.766 634.492 229.237C637.279 232.722 636.289 243.296 636.064 245.379L636.075 245.596L661.888 410.83C662.09 412.148 661.766 413.493 660.985 414.573C660.204 415.653 659.029 416.382 657.715 416.602L641.593 419.26C640.393 419.453 639.163 419.208 638.127 418.57C637.091 417.932 636.319 416.943 635.95 415.783C630.964 399.835 614.244 346.184 608.449 325.424C608.418 325.287 608.336 325.167 608.221 325.087C608.105 325.008 607.964 324.975 607.825 324.995C607.686 325.015 607.56 325.087 607.472 325.196C607.383 325.305 607.339 325.443 607.348 325.583C607.637 345.373 608.337 395.863 608.583 413.301L608.609 415.18C608.619 416.451 608.153 417.68 607.302 418.625C606.451 419.569 605.277 420.159 604.013 420.279L588.467 421.688C588.311 421.702 588.154 421.708 587.997 421.706Z" fill="#2F2E41"/>
<path d="M591.17 76.9984C586.357 79.8627 583.476 85.1251 581.824 90.4897C578.764 100.405 576.922 110.657 576.339 121.018L574.591 152.039L552.968 234.287C571.71 250.159 582.519 246.551 607.747 233.568C632.976 220.585 635.858 237.897 635.858 237.897L640.903 167.915L648.11 91.4437C646.492 89.4937 644.661 87.7315 642.65 86.1901C635.988 81.0037 628.237 77.3985 619.981 75.646C611.726 73.8936 603.18 74.0396 594.988 76.0732L591.17 76.9984Z" fill="#E6E6E6"/>
<path d="M584.147 173.045C584.728 173.263 585.291 173.526 585.831 173.832L635.635 148.878L636.461 135.361L657.005 133.943L658.106 164.757L591.551 186.79C591.008 189.125 589.768 191.238 587.995 192.85C586.223 194.462 584.002 195.495 581.629 195.812C579.255 196.13 576.841 195.716 574.708 194.627C572.575 193.537 570.824 191.824 569.688 189.714C568.552 187.604 568.085 185.198 568.348 182.815C568.612 180.433 569.594 178.187 571.163 176.377C572.733 174.567 574.816 173.279 577.136 172.683C579.455 172.087 581.901 172.212 584.147 173.041L584.147 173.045Z" fill="#FEB8B8"/>
<path d="M647.751 91.7885C660.004 96.1169 662.163 143.016 662.163 143.016C647.748 135.08 630.449 148.066 630.449 148.066C630.449 148.066 626.846 135.8 622.521 119.929C621.215 115.465 621.059 110.742 622.067 106.201C623.075 101.66 625.215 97.4476 628.286 93.9567C628.286 93.9567 635.497 87.4577 647.751 91.7885Z" fill="#E6E6E6"/>
<path d="M633.4 45.8336C629.964 43.0818 625.276 48.0816 625.276 48.0816L622.527 23.3215C622.527 23.3215 605.345 25.3819 594.346 22.6334C583.348 19.8849 581.631 32.6121 581.631 32.6121C581.064 27.4722 580.949 22.2924 581.287 17.1323C581.975 10.9407 590.909 4.74908 606.717 0.621075C622.525 -3.50693 630.772 14.3806 630.772 14.3806C641.775 19.8801 636.841 48.5885 633.4 45.8336Z" fill="#2F2E41"/>
<path d="M683 445.252H94.9071V447H683V445.252Z" fill="#E6E6E6"/>
<path d="M151.64 414.378C154.156 415.264 156.858 415.486 159.485 415.022C162.112 414.559 164.576 413.426 166.638 411.733C171.892 407.32 173.539 400.05 174.879 393.317L178.842 373.403L170.544 379.123C164.576 383.236 158.474 387.481 154.341 393.439C150.208 399.397 148.405 407.53 151.725 413.976" fill="#E6E6E6"/>
<path d="M152.922 439.874C151.877 432.256 150.803 424.541 151.536 416.843C152.186 410.005 154.27 403.327 158.513 397.852C160.765 394.951 163.505 392.466 166.611 390.507C167.42 389.996 168.166 391.28 167.359 391.79C161.985 395.188 157.828 400.207 155.488 406.123C152.904 412.702 152.489 419.873 152.936 426.86C153.206 431.087 153.776 435.285 154.351 439.478C154.396 439.667 154.368 439.867 154.271 440.037C154.175 440.206 154.018 440.333 153.832 440.391C153.643 440.442 153.441 440.416 153.27 440.319C153.099 440.222 152.973 440.061 152.92 439.872L152.922 439.874Z" fill="#F2F2F2"/>
<path d="M160.44 427.652C161.519 429.294 163.003 430.63 164.748 431.531C166.492 432.432 168.44 432.869 170.402 432.798C175.445 432.559 179.65 429.036 183.434 425.693L194.628 415.801L187.22 415.446C181.892 415.191 176.427 414.953 171.349 416.598C166.271 418.242 161.594 422.2 160.667 427.454" fill="#E6E6E6"/>
<path d="M149.969 444.252C154.994 435.346 160.83 425.448 171.251 422.285C174.149 421.408 177.188 421.094 180.203 421.359C181.154 421.439 180.916 422.908 179.964 422.826C174.909 422.406 169.864 423.742 165.678 426.609C161.65 429.354 158.514 433.169 155.86 437.215C154.234 439.69 152.777 442.277 151.321 444.857C150.857 445.681 149.501 445.086 149.969 444.252Z" fill="#F2F2F2"/>
<path d="M504.378 187.279H252.604C251.368 187.277 250.183 186.785 249.309 185.91C248.435 185.035 247.943 183.849 247.942 182.612V120.098C247.943 118.861 248.435 117.674 249.309 116.799C250.183 115.925 251.368 115.432 252.604 115.431H504.378C505.615 115.432 506.8 115.925 507.674 116.799C508.548 117.674 509.039 118.861 509.041 120.098V182.612C509.039 183.849 508.548 185.035 507.674 185.91C506.8 186.785 505.615 187.277 504.378 187.279ZM252.604 117.298C251.863 117.299 251.151 117.594 250.627 118.119C250.102 118.644 249.807 119.356 249.807 120.099V182.613C249.807 183.355 250.102 184.067 250.627 184.592C251.151 185.117 251.862 185.412 252.604 185.413H504.378C505.12 185.412 505.832 185.117 506.356 184.592C506.881 184.067 507.176 183.355 507.176 182.613V120.098C507.176 119.355 506.881 118.643 506.356 118.118C505.832 117.593 505.12 117.298 504.378 117.297L252.604 117.298Z" fill="#E6E6E6"/>
<path d="M335.589 136.282C334.749 136.282 333.944 136.616 333.351 137.21C332.757 137.804 332.424 138.61 332.424 139.45C332.424 140.291 332.757 141.096 333.351 141.691C333.944 142.285 334.749 142.619 335.589 142.619H484.815C485.654 142.619 486.459 142.285 487.053 141.691C487.647 141.096 487.98 140.291 487.98 139.45C487.98 138.61 487.647 137.804 487.053 137.21C486.459 136.616 485.654 136.282 484.815 136.282H335.589Z" fill="#E6E6E6"/>
<path d="M335.589 155.293C334.749 155.293 333.944 155.627 333.351 156.221C332.757 156.815 332.424 157.621 332.424 158.462C332.424 159.302 332.757 160.108 333.351 160.702C333.944 161.296 334.749 161.63 335.589 161.63H399.801C400.641 161.63 401.446 161.296 402.04 160.702C402.633 160.108 402.967 159.302 402.967 158.462C402.967 157.621 402.633 156.815 402.04 156.221C401.446 155.627 400.641 155.293 399.801 155.293H335.589Z" fill="#E6E6E6"/>
<path d="M291.904 167.823C302.393 167.823 310.896 159.311 310.896 148.812C310.896 138.313 302.393 129.801 291.904 129.801C281.415 129.801 272.911 138.313 272.911 148.812C272.911 159.311 281.415 167.823 291.904 167.823Z" fill="#E6E6E6"/>
<path d="M288.919 159.377C288.281 159.378 287.659 159.172 287.149 158.788L287.117 158.764L280.451 153.66C279.827 153.181 279.419 152.474 279.315 151.694C279.212 150.914 279.423 150.125 279.901 149.501C280.379 148.876 281.085 148.467 281.864 148.364C282.644 148.261 283.432 148.472 284.056 148.95L288.374 152.264L298.577 138.94C299.055 138.316 299.76 137.908 300.539 137.805C301.317 137.702 302.105 137.913 302.728 138.391L302.665 138.479L302.73 138.391C303.353 138.87 303.76 139.576 303.863 140.355C303.966 141.135 303.755 141.923 303.278 142.547L291.278 158.221C291 158.581 290.643 158.873 290.235 159.074C289.826 159.274 289.377 159.378 288.922 159.377L288.919 159.377Z" fill="#2A438C"/>
</g>
<defs>
<clipPath id="clip0_4_108">
<rect width="683" height="447" fill="white"/>
</clipPath>
</defs>
</svg>
