<svg width="279" height="383" viewBox="0 0 279 383" fill="none" xmlns="http://www.w3.org/2000/svg">
<path d="M181.203 192.934C180.997 193.311 180.945 193.754 181.059 194.169C181.173 194.584 181.443 194.938 181.812 195.158C182.366 195.226 195.378 203.62 195.749 202.659C195.954 202.598 196.146 202.497 196.312 202.361C196.478 202.226 196.615 202.058 196.715 201.869L217.655 162.665C217.77 162.45 217.836 162.212 217.849 161.969C217.862 161.726 217.821 161.482 217.73 161.256C218.309 160.246 203.295 156.372 202.783 156.069C202.433 155.962 202.056 155.98 201.717 156.121C201.378 156.261 201.099 156.515 200.928 156.839L181.203 192.934Z" fill="#3F3D56"/>
<path d="M214.647 161.838C214.647 161.838 202.081 158.3 202.293 158.15C201.952 158.136 201.266 157.645 201.047 158.151L182.397 192.533C181.595 193.283 194.778 199.405 194.889 199.768C195.931 200.424 214.344 162.675 214.911 162.481C214.967 162.377 214.979 162.255 214.946 162.142C214.913 162.029 214.837 161.933 214.734 161.875C214.707 161.859 214.678 161.847 214.647 161.838Z" fill="#2A438C"/>
<path d="M145.943 370L157.575 369.999L163.108 326L145.938 326.002L145.943 370Z" fill="#FFB8B8"/>
<path d="M166.424 367H142.719V381H181.35C181.35 379.161 180.964 377.341 180.214 375.642C179.464 373.944 178.364 372.401 176.978 371.1C175.592 369.8 173.947 368.769 172.136 368.066C170.325 367.362 168.385 367 166.424 367Z" fill="#2F2E41"/>
<path d="M79.412 370L91.7729 369.999L97.65 326L79.4077 326.002L79.412 370Z" fill="#FFB8B8"/>
<path d="M100.308 367H77.2615V381H114.819C114.819 379.161 114.444 377.341 113.715 375.642C112.985 373.944 111.917 372.401 110.569 371.1C109.222 369.8 107.622 368.769 105.861 368.066C104.101 367.362 102.214 367 100.308 367Z" fill="#2F2E41"/>
<path d="M115.356 57C100.836 57 89.0654 46.031 89.0654 32.5C89.0654 18.969 100.836 8 115.356 8C129.876 8 141.646 18.969 141.646 32.5C141.646 46.031 129.876 57 115.356 57Z" fill="#FFB8B8"/>
<path d="M205.943 192.302C205.758 190.938 205.256 189.628 204.47 188.465C203.684 187.302 202.635 186.314 201.396 185.57C200.156 184.827 198.757 184.345 197.297 184.161C195.837 183.976 194.351 184.092 192.944 184.501L178.189 168L165.254 173.919L186.441 196.949C187.334 199.108 189.045 200.887 191.25 201.948C193.455 203.009 196.001 203.279 198.404 202.706C200.808 202.133 202.903 200.758 204.293 198.84C205.682 196.923 206.269 194.596 205.943 192.302Z" fill="#FFB8B8"/>
<path d="M78.446 209.439C79.0735 208.176 79.4017 206.798 79.4076 205.402C79.4135 204.006 79.0968 202.625 78.4799 201.358C77.8631 200.09 76.9609 198.967 75.8372 198.066C74.7134 197.165 73.3952 196.51 71.9756 196.145L69.0192 174.502L54.7269 173L59.3542 203.508C58.8669 205.813 59.287 208.207 60.535 210.237C61.783 212.268 63.7721 213.793 66.1254 214.524C68.4787 215.255 71.0327 215.141 73.3035 214.204C75.5742 213.267 77.404 211.571 78.446 209.439L78.446 209.439Z" fill="#FFB8B8"/>
<path d="M92.8075 78.6744C91.4265 76.9918 89.6023 75.6846 87.5188 74.8848C85.4354 74.085 83.1665 73.8209 80.9412 74.1191C78.7158 74.4173 76.6127 75.2673 74.8441 76.5833C73.0755 77.8993 71.7041 79.6348 70.8682 81.6145L49.5831 132.023C47.4079 137.174 46.7144 142.781 47.5733 148.27L54.5065 192.576C54.596 193.148 54.8145 193.694 55.1471 194.179C55.4797 194.663 55.9186 195.073 56.4337 195.381C56.9488 195.69 57.528 195.889 58.1316 195.965C58.7353 196.041 59.3492 195.993 59.9314 195.823L69.0657 193.161C70.0116 192.886 70.8257 192.304 71.3663 191.518C71.907 190.731 72.1399 189.79 72.0246 188.857C68.8007 162.773 73.0615 136.347 84.357 112.371L94.3913 91.0723C95.3375 89.0639 95.69 86.849 95.411 84.6649C95.132 82.4809 94.232 80.4101 92.8075 78.6744Z" fill="#2A438C"/>
<path d="M109.032 56.9939C105.089 57.0739 101.174 56.3687 97.5418 54.9246C93.9101 53.4804 90.6445 51.3299 87.9596 48.6145C85.2748 45.8991 83.2314 42.6803 81.9639 39.1695C80.6964 35.6587 80.2334 31.9354 80.6054 28.2444C80.9773 24.5534 82.1758 20.9781 84.1219 17.7536C86.0682 14.5291 88.718 11.7283 91.8975 9.53537C95.0769 7.34239 98.714 5.80685 102.57 5.02966C106.425 4.25247 110.412 4.25123 114.268 5.02602C120.028 1.73747 126.726 -0.475364 133.438 0.0874501C140.15 0.650264 146.788 4.39716 149.298 10.2775C151.809 16.1578 149.112 23.909 142.871 26.2988C138.87 27.8308 134.351 27.0878 130.081 26.47C125.811 25.8522 121.153 25.449 117.436 27.5206C113.72 29.5922 112.049 35.147 115.378 37.737C117.142 39.1643 118.402 41.0633 118.99 43.1808C119.577 45.2983 119.465 47.5339 118.667 49.5898C116.994 53.6572 112.429 56.9249 109.032 56.9939Z" fill="#2F2E41"/>
<path d="M76.5435 191.565L71.8976 356.895C71.8821 357.446 71.9883 357.994 72.2095 358.505C72.4307 359.016 72.7621 359.478 73.1828 359.863C73.6036 360.248 74.1047 360.547 74.6547 360.742C75.2047 360.937 75.7917 361.023 76.3789 360.995L91.6832 360.263C92.6597 360.216 93.5896 359.856 94.3169 359.243C95.0442 358.63 95.5248 357.801 95.6783 356.896L113.882 249.513C113.96 249.053 114.206 248.634 114.578 248.326C114.951 248.019 115.426 247.842 115.922 247.828C116.418 247.814 116.904 247.962 117.296 248.247C117.688 248.532 117.961 248.937 118.07 249.391L142.71 352.781C142.842 353.334 143.097 353.854 143.459 354.307C143.821 354.761 144.282 355.136 144.811 355.41C145.339 355.684 145.924 355.849 146.526 355.896C147.127 355.942 147.733 355.867 148.302 355.678L163.49 354.808C164.369 354.515 165.121 353.96 165.632 353.228C166.142 352.496 166.382 351.627 166.316 350.755L153.057 190L76.5435 191.565Z" fill="#2F2E41"/>
<path d="M68.9024 112.762C66.3317 87.7211 86.0391 65.0716 112.898 63.2898C124.47 62.5221 142.436 62.2477 148.359 76.4188C166.199 119.108 134.968 118.071 145.728 155.057C156.489 192.042 165.993 194.162 151.228 196.833C136.464 199.504 70.0689 215.269 72.7952 189.237C74.471 173.236 71.4666 137.741 68.9024 112.762Z" fill="#2A438C"/>
<path d="M145.389 71.8198C143.256 71.0478 140.943 70.8155 138.684 71.1464C136.425 71.4774 134.299 72.3598 132.521 73.7047C130.743 75.0495 129.376 76.8092 128.557 78.8062C127.739 80.8031 127.498 82.9666 127.859 85.0784L136.293 134.369C137.735 142.797 141.546 150.716 147.336 157.315L174.726 188.529C175.119 188.977 175.611 189.34 176.168 189.594C176.725 189.847 177.334 189.986 177.954 189.999C178.573 190.012 179.188 189.9 179.757 189.671C180.326 189.441 180.836 189.099 181.25 188.669L187.756 181.912C188.43 181.212 188.82 180.314 188.858 179.373C188.897 178.432 188.581 177.508 187.967 176.762L186.051 174.437C170.117 155.098 160.064 132.093 156.956 107.853L153.603 81.7099C153.322 79.5195 152.409 77.4418 150.962 75.6996C149.515 73.9573 147.589 72.6162 145.389 71.8198Z" fill="#2A438C"/>
<path d="M1.07306 383H277.927C278.212 383 278.484 382.895 278.686 382.707C278.887 382.52 279 382.265 279 382C279 381.735 278.887 381.48 278.686 381.293C278.484 381.105 278.212 381 277.927 381H1.07306C0.788483 381 0.515472 381.105 0.31424 381.293C0.113007 381.48 0 381.735 0 382C0 382.265 0.113007 382.52 0.31424 382.707C0.515472 382.895 0.788483 383 1.07306 383Z" fill="#CCCCCC"/>
</svg>
