<svg width="380" height="323" viewBox="0 0 380 323" fill="none" xmlns="http://www.w3.org/2000/svg">
<g clip-path="url(#clip0_25_971)">
<path d="M239.598 44.0064C236.008 51.4356 229.403 56.9662 222.485 61.4681C215.145 66.2265 207.255 70.0782 198.988 72.9386C197.85 73.3365 196.701 73.7173 195.552 74.0754H146.351C146.032 73.7116 145.725 73.3308 145.429 72.9386C142.34 68.8574 140.684 63.6905 141.304 58.626C142.118 51.9869 147.164 45.8822 153.713 44.4669C160.261 43.0572 167.725 46.9622 169.711 53.3511C170.809 41.0336 172.072 28.1989 178.626 17.706C184.56 8.20788 194.846 1.40967 205.986 0.193273C212.538 -0.488497 219.148 0.720715 225.034 3.6776C225.574 3.95044 226.109 4.23465 226.632 4.53022C230.164 6.53101 233.281 9.18766 235.815 12.3573C242.761 21.1449 244.462 33.9171 239.598 44.0064Z" fill="#F2F2F2"/>
<path d="M226.632 4.53025C226.646 4.67945 226.621 4.82965 226.559 4.96616C226.497 5.10268 226.401 5.22081 226.28 5.30901C203.997 23.4382 186.373 46.6255 174.877 72.9386C174.706 73.3138 174.541 73.6946 174.382 74.0755H172.118C172.277 73.6946 172.436 73.3138 172.601 72.9386C174.758 67.9139 177.141 62.9914 179.753 58.1713C185.404 47.7643 192.054 37.9301 199.608 28.8071C207.161 19.673 215.598 11.3053 224.795 3.82545C224.868 3.76612 224.948 3.71645 225.034 3.67767C225.194 3.60886 225.367 3.57689 225.541 3.58416C225.715 3.59142 225.885 3.63772 226.038 3.71962C226.192 3.80153 226.325 3.91692 226.428 4.05726C226.531 4.19759 226.601 4.35926 226.632 4.53025Z" fill="white"/>
<path d="M227.571 72.9386H10.8096C8.94258 72.9365 7.10719 73.4204 5.48427 74.3426C5.09554 74.563 4.72124 74.8079 4.36363 75.0758C3.00954 76.0788 1.9095 77.3848 1.15171 78.8892C0.393927 80.3935 -0.000518434 82.0543 5.11392e-07 83.7384V196.284C0.00254795 199.147 1.14223 201.893 3.16888 203.918C5.19553 205.943 7.94352 207.081 10.8096 207.084H227.571C230.437 207.081 233.185 205.943 235.212 203.918C237.239 201.893 238.378 199.147 238.381 196.284V83.7384C238.378 80.8749 237.239 78.1295 235.212 76.1047C233.185 74.0799 230.437 72.9412 227.571 72.9386ZM237.243 196.284C237.239 198.846 236.219 201.301 234.406 203.113C232.593 204.924 230.135 205.943 227.571 205.947H10.8096C8.24563 205.943 5.78769 204.924 3.97467 203.113C2.16164 201.301 1.14149 198.846 1.13786 196.284V83.7384C1.14593 81.6963 1.79779 79.7086 3.00085 78.0577C4.20391 76.4067 5.89701 75.1764 7.83971 74.5415C7.91944 74.5188 7.99332 74.4904 8.07306 74.4676C8.96174 74.2066 9.88335 74.0745 10.8096 74.0754H227.571C230.135 74.0791 232.593 75.0983 234.406 76.9097C236.219 78.7211 237.239 81.1768 237.243 83.7384V196.284Z" fill="#3F3D56"/>
<path d="M305.638 219.744C306.387 219.256 307.019 218.611 307.491 217.853C307.963 217.095 308.263 216.242 308.369 215.356C308.476 214.47 308.387 213.571 308.108 212.723C307.829 211.875 307.368 211.098 306.756 210.447L310.153 169.97L300.422 171.04L297.756 210.435C296.73 211.534 296.143 212.971 296.107 214.474C296.07 215.976 296.587 217.44 297.559 218.587C298.53 219.735 299.89 220.486 301.379 220.699C302.868 220.912 304.383 220.572 305.638 219.744Z" fill="#FFB8B8"/>
<path d="M271.002 316.289L264.026 316.288L260.708 289.409L271.003 289.41L271.002 316.289Z" fill="#FFB8B8"/>
<path d="M259.044 314.297H272.496V322.759H250.575C250.575 321.648 250.794 320.547 251.219 319.521C251.645 318.494 252.269 317.561 253.055 316.776C253.842 315.99 254.776 315.366 255.803 314.941C256.831 314.516 257.932 314.297 259.044 314.297Z" fill="#2F2E41"/>
<path d="M320.498 316.289L313.523 316.288L310.205 289.409L320.499 289.41L320.498 316.289Z" fill="#FFB8B8"/>
<path d="M308.541 314.297H321.993V322.759H300.072C300.072 320.515 300.964 318.362 302.552 316.776C304.141 315.189 306.295 314.297 308.541 314.297Z" fill="#2F2E41"/>
<path d="M271.119 299.641C271.044 299.641 270.968 299.638 270.891 299.632L261.019 298.842C260.628 298.811 260.247 298.699 259.901 298.514C259.555 298.328 259.251 298.073 259.008 297.764C258.766 297.455 258.59 297.099 258.492 296.719C258.393 296.339 258.375 295.943 258.438 295.556L273.405 203.064L274.408 190.018C274.452 189.408 274.693 188.829 275.095 188.368C275.497 187.907 276.037 187.588 276.636 187.46L291.691 184.17C292.244 184.046 292.822 184.092 293.349 184.301C293.876 184.509 294.328 184.872 294.646 185.341L298.317 190.701C299.759 192.785 301.325 194.78 303.008 196.675C305.612 199.638 310.041 206.218 310.438 216.987C310.545 220.525 310.912 224.05 311.538 227.533L323.658 292.765C323.72 293.147 323.702 293.538 323.607 293.913C323.511 294.289 323.34 294.641 323.104 294.948C322.867 295.255 322.57 295.51 322.231 295.698C321.892 295.886 321.518 296.003 321.133 296.041L311.775 296.75C311.105 296.816 310.434 296.641 309.881 296.258C309.329 295.875 308.931 295.308 308.758 294.658L292.159 232.985C292.126 232.864 292.055 232.757 291.955 232.681C291.856 232.605 291.734 232.564 291.609 232.564C291.483 232.564 291.362 232.606 291.262 232.682C291.163 232.758 291.092 232.865 291.06 232.986L273.867 297.53C273.705 298.135 273.349 298.67 272.852 299.051C272.355 299.433 271.746 299.64 271.119 299.641Z" fill="#2F2E41"/>
<path d="M297.371 142.253C305.089 142.253 311.345 136.003 311.345 128.292C311.345 120.582 305.089 114.332 297.371 114.332C289.654 114.332 283.398 120.582 283.398 128.292C283.398 136.003 289.654 142.253 297.371 142.253Z" fill="#FFB8B8"/>
<path d="M273.687 192.117L273.398 172.18C272.334 159.429 277.986 152.734 282.915 149.367C284.186 148.509 285.618 147.919 287.125 147.631C288.631 147.343 290.18 147.363 291.678 147.691L302.675 150.066C304.207 150.399 305.654 151.04 306.931 151.948C308.208 152.856 309.287 154.014 310.103 155.351C310.883 156.612 311.396 158.02 311.608 159.487C311.821 160.955 311.729 162.451 311.339 163.881C310.575 166.559 308.88 168.877 306.56 170.419C297.111 177.083 296.445 188.278 296.439 188.391L296.428 188.622L273.687 192.117Z" fill="#2A438C"/>
<path d="M308.103 177.292H298.431C297.752 177.291 297.101 177.022 296.621 176.542C296.141 176.063 295.871 175.412 295.871 174.734V157.966C295.871 156.006 296.65 154.127 298.037 152.741C299.424 151.355 301.305 150.577 303.267 150.577C305.228 150.577 307.109 151.355 308.496 152.741C309.884 154.127 310.663 156.006 310.663 157.966V174.734C310.662 175.412 310.392 176.063 309.912 176.542C309.432 177.022 308.781 177.291 308.103 177.292Z" fill="#2A438C"/>
<path d="M243.166 180.46C242.596 181.139 241.889 181.69 241.091 182.077C240.292 182.464 239.421 182.677 238.534 182.702C237.648 182.728 236.765 182.565 235.946 182.226C235.127 181.886 234.389 181.377 233.781 180.731C228.27 174.957 237.278 166.286 242.81 172.073C243.005 172.273 243.186 172.485 243.352 172.71L271.245 172.017L274.575 165.933L284.807 169.903C282.843 172.946 280.587 184.891 275.449 184.31C274.776 184.328 243.855 180.509 243.166 180.46Z" fill="#FFB8B8"/>
<path d="M280.48 175.857L272.683 170.14C272.136 169.738 271.771 169.136 271.668 168.465C271.565 167.795 271.733 167.111 272.134 166.564L282.064 153.046C282.638 152.263 283.362 151.602 284.192 151.099C285.023 150.596 285.944 150.261 286.904 150.114C287.864 149.967 288.844 150.01 289.787 150.241C290.731 150.472 291.619 150.886 292.402 151.46C293.185 152.034 293.847 152.757 294.351 153.587C294.854 154.417 295.189 155.337 295.337 156.297C295.484 157.256 295.441 158.234 295.21 159.177C294.978 160.119 294.564 161.007 293.989 161.789L284.059 175.308C283.657 175.854 283.054 176.219 282.383 176.322C281.712 176.424 281.028 176.257 280.48 175.857Z" fill="#2A438C"/>
<path d="M300.17 135.549C300.621 134.609 300.778 133.555 300.619 132.525C300.461 131.494 299.995 130.536 299.283 129.774C296.654 127.126 292.547 128.893 288.994 128.633C283.076 128.201 279.046 121.151 280.813 115.492C282.579 109.833 288.859 106.321 294.78 106.693C300.702 107.066 306.063 110.725 309.632 115.461C312.075 111.533 318.077 111.075 321.951 113.607C325.824 116.139 327.828 120.767 328.656 125.317C329.485 129.867 329.349 134.543 330.047 139.115C331.738 150.197 338.897 160.633 349.256 164.941C359.615 169.249 372.871 166.48 379.648 157.546C380.965 168.373 378.654 179.331 373.074 188.706C367.494 198.081 358.962 205.344 348.811 209.358C343.197 211.578 336.998 212.757 331.089 211.523C321.548 209.531 314.127 201.379 310.893 192.193C307.658 183.006 308.046 172.927 309.616 163.316C310.584 157.396 311.655 150.386 307.334 146.222C306.121 145.213 304.694 144.494 303.161 144.12C302.348 143.876 301.602 143.45 300.978 142.874C300.355 142.298 299.872 141.588 299.566 140.797C299.259 140.006 299.137 139.156 299.209 138.311C299.281 137.466 299.545 136.649 299.981 135.921C300.051 135.798 300.114 135.674 300.17 135.549Z" fill="#BB2020"/>
<path d="M350.334 323H220.619C220.468 323 220.323 322.94 220.216 322.833C220.11 322.727 220.05 322.582 220.05 322.432C220.05 322.281 220.11 322.136 220.216 322.03C220.323 321.923 220.468 321.863 220.619 321.863H350.334C350.485 321.863 350.63 321.923 350.737 322.03C350.843 322.136 350.903 322.281 350.903 322.432C350.903 322.582 350.843 322.727 350.737 322.833C350.63 322.94 350.485 323 350.334 323Z" fill="#3F3D56"/>
<path d="M118.954 139.963C118.09 139.963 117.241 139.744 116.485 139.328L3.24377 77.0565C3.1116 76.9838 3.01374 76.8616 2.97172 76.7168C2.92971 76.572 2.94698 76.4165 3.01973 76.2845C3.09249 76.1524 3.21478 76.0546 3.35968 76.0127C3.50459 75.9707 3.66025 75.9879 3.79242 76.0606L117.034 138.332C117.611 138.65 118.259 138.82 118.919 138.826C119.578 138.832 120.229 138.673 120.812 138.365L235.917 77.6987C235.984 77.6637 236.056 77.642 236.13 77.635C236.205 77.628 236.28 77.6357 236.351 77.6577C236.423 77.6797 236.489 77.7155 236.547 77.7632C236.605 77.8109 236.652 77.8695 236.687 77.9356C236.722 78.0017 236.743 78.074 236.75 78.1484C236.757 78.2228 236.749 78.2979 236.727 78.3692C236.705 78.4406 236.669 78.5069 236.621 78.5643C236.573 78.6218 236.515 78.6692 236.448 78.704L121.343 139.37C120.607 139.759 119.786 139.963 118.954 139.963Z" fill="#3F3D56"/>
<path d="M36.165 178.663H20.235C19.0279 178.663 17.8702 178.184 17.0167 177.331C16.1631 176.478 15.6836 175.322 15.6836 174.116C15.6836 172.91 16.1631 171.753 17.0167 170.9C17.8702 170.048 19.0279 169.569 20.235 169.569H36.165C37.3721 169.569 38.5298 170.048 39.3833 170.9C40.2369 171.753 40.7164 172.91 40.7164 174.116C40.7164 175.322 40.2369 176.478 39.3833 177.331C38.5298 178.184 37.3721 178.663 36.165 178.663Z" fill="#3F3D56"/>
<path d="M54.9396 194.01H20.235C19.0279 194.01 17.8702 193.531 17.0167 192.678C16.1631 191.826 15.6836 190.669 15.6836 189.463C15.6836 188.257 16.1631 187.1 17.0167 186.247C17.8702 185.395 19.0279 184.916 20.235 184.916H54.9396C56.1467 184.916 57.3044 185.395 58.158 186.247C59.0115 187.1 59.4911 188.257 59.4911 189.463C59.4911 190.669 59.0115 191.826 58.158 192.678C57.3044 193.531 56.1467 194.01 54.9396 194.01Z" fill="#3F3D56"/>
<path d="M118.908 158.2C128.963 158.2 137.114 150.057 137.114 140.011C137.114 129.965 128.963 121.822 118.908 121.822C108.853 121.822 100.702 129.965 100.702 140.011C100.702 150.057 108.853 158.2 118.908 158.2Z" fill="#2A438C"/>
</g>
<defs>
<clipPath id="clip0_25_971">
<rect width="380" height="323" fill="white"/>
</clipPath>
</defs>
</svg>
